<svg width="18" height="21" viewBox="0 0 18 21" fill="none" xmlns="http://www.w3.org/2000/svg">
<path d="M8.97504 10.5C8.97504 8.56702 10.7659 6.99998 12.975 6.99998C15.1842 6.99998 16.9751 8.56702 16.9751 10.5C16.9751 12.433 15.1842 14 12.975 14C10.7659 14 8.97504 12.433 8.97504 10.5Z" fill="#1ABCFE"/>
<path d="M0.975037 17.5C0.975037 15.567 2.7659 14 4.97504 14H8.97504V17.5C8.97504 19.433 7.1842 21 4.97504 21C2.7659 21 0.975037 19.433 0.975037 17.5Z" fill="#0ACF83"/>
<path d="M8.97504 0V6.99998H12.975C15.1842 6.99998 16.9751 5.43299 16.9751 3.5C16.9751 1.56701 15.1842 0 12.975 0H8.97504Z" fill="#FF7262"/>
<path d="M0.975037 3.5C0.975037 5.433 2.7659 6.99999 4.97504 6.99999H8.97504V0H4.97504C2.7659 0 0.975037 1.567 0.975037 3.5Z" fill="#F24E1E"/>
<path d="M0.975037 10.5C0.975037 12.433 2.7659 14 4.97504 14H8.97504V6.99998H4.97504C2.7659 6.99998 0.975037 8.56702 0.975037 10.5Z" fill="#A259FF"/>
</svg>
