<svg width="17" height="16" viewBox="0 0 17 16" fill="none" xmlns="http://www.w3.org/2000/svg">
<path d="M3.37575 10.1146C3.37575 11.0446 2.62416 11.7962 1.69422 11.7962C0.764288 11.7962 0.0126953 11.0446 0.0126953 10.1146C0.0126953 9.1847 0.764288 8.43311 1.69422 8.43311H3.37575V10.1146Z" fill="#E01E5A"/>
<path d="M4.2168 10.1147C4.2168 9.18476 4.96839 8.43317 5.89833 8.43317C6.82826 8.43317 7.57985 9.18476 7.57985 10.1147V14.3185C7.57985 15.2485 6.82826 16 5.89833 16C4.96839 16 4.2168 15.2485 4.2168 14.3185V10.1147Z" fill="#E01E5A"/>
<path d="M5.89833 3.36306C4.96839 3.36306 4.2168 2.61147 4.2168 1.68153C4.2168 0.751593 4.96839 0 5.89833 0C6.82826 0 7.57985 0.751593 7.57985 1.68153V3.36306H5.89833Z" fill="#36C5F0"/>
<path d="M5.89809 4.21655C6.82803 4.21655 7.57962 4.96815 7.57962 5.89808C7.57962 6.82802 6.82803 7.57961 5.89809 7.57961H1.68153C0.751592 7.57961 0 6.82802 0 5.89808C0 4.96815 0.751592 4.21655 1.68153 4.21655H5.89809Z" fill="#36C5F0"/>
<path d="M12.6372 5.89808C12.6372 4.96815 13.3888 4.21655 14.3187 4.21655C15.2487 4.21655 16.0003 4.96815 16.0003 5.89808C16.0003 6.82802 15.2487 7.57961 14.3187 7.57961H12.6372V5.89808Z" fill="#2EB67D"/>
<path d="M11.7962 5.89809C11.7962 6.82803 11.0446 7.57962 10.1146 7.57962C9.1847 7.57962 8.43311 6.82803 8.43311 5.89809V1.68153C8.43311 0.751593 9.1847 0 10.1146 0C11.0446 0 11.7962 0.751593 11.7962 1.68153V5.89809Z" fill="#2EB67D"/>
<path d="M10.1146 12.637C11.0446 12.637 11.7962 13.3886 11.7962 14.3185C11.7962 15.2484 11.0446 16 10.1146 16C9.1847 16 8.43311 15.2484 8.43311 14.3185V12.637H10.1146Z" fill="#ECB22E"/>
<path d="M10.1146 11.7962C9.1847 11.7962 8.43311 11.0446 8.43311 10.1146C8.43311 9.1847 9.1847 8.43311 10.1146 8.43311H14.3312C15.2611 8.43311 16.0127 9.1847 16.0127 10.1146C16.0127 11.0446 15.2611 11.7962 14.3312 11.7962H10.1146Z" fill="#ECB22E"/>
</svg>
